<svg width="1776" height="1776" viewBox="0 0 1776 1776" fill="none" xmlns="http://www.w3.org/2000/svg">
<g clip-path="url(#clip0_71_86)">
<path d="M1736.19 790.8C1721.29 796.1 1705.79 799.6 1690.09 801.2C1674.79 802.8 1659.49 803.7 1644.09 803.7C1636.49 803.7 1629.69 803.5 1623.89 802.9C1618.09 802.3 1612.29 802.1 1606.89 802.1C1595.99 802.3 1585.19 803.4 1574.49 805.3C1561.59 807.4 1547.49 812.3 1532.49 819.9C1518.49 827.4 1504.39 837.9 1490.49 851.5C1476.49 864.9 1464.59 883.5 1454.89 907.3C1448.49 922.3 1443.29 940.1 1439.59 960.6C1435.89 981.1 1433.89 1004.2 1433.89 1030.1V1207.9C1433.79 1233.3 1430.59 1258.6 1424.19 1283.1C1417.99 1307.9 1406.99 1331.2 1391.89 1351.8C1376.79 1372.3 1356.59 1388.7 1331.29 1401.2C1305.99 1413.6 1274.99 1419.8 1238.29 1419.8V1164.3L1236.69 1052.8C1236.69 998.9 1244.49 948.5 1260.09 901.6C1275.69 854.8 1299.19 813.6 1330.39 778C1361.69 743.4 1398.79 715.9 1441.99 695.4C1485.19 674.9 1534.19 664.7 1589.09 664.7C1615.39 664.5 1641.69 667 1667.49 672C1691.79 676.9 1712.99 682 1731.39 687.4C1739.29 689.8 1746.89 692.3 1754.49 694.8C1666.19 297.3 1311.89 5.59733e-05 887.889 5.59733e-05C603.389 -0.099944 350.489 133.8 187.989 341.8C217.289 324.7 247.889 312.5 280.189 305.8C316.389 298.3 350.989 295 384.489 296.1C393.089 296.1 398.989 296.7 402.289 297.7C473.489 303.1 532.989 314.7 580.989 332.5C628.889 350.3 667.489 369.4 696.589 389.8C711.689 399.6 724.089 409 733.789 418.1C742.289 426 750.389 434.4 757.989 443.2C765.589 451.8 771.989 459.3 777.389 465.8L780.589 472.3L777.389 477.1C766.589 491.1 755.289 501.3 743.489 507.8C738.589 511.9 732.789 514.7 726.489 515.9C720.389 517 714.089 517.5 707.889 517.5C700.789 517.6 693.689 516.5 686.889 514.3C680.489 512.2 672.889 509.5 664.289 506.2C645.889 497.6 627.589 489.5 609.289 482C587.689 473.4 562.689 464.7 534.089 456.1C505.489 447.5 470.789 441.6 429.789 438.3C427.589 438.3 425.489 438.1 423.389 437.5C421.289 437 419.089 436.7 416.889 436.7C369.489 434.6 330.189 444.3 298.889 465.8C266.489 486.3 247.089 513.2 240.589 546.6C238.489 557.4 237.389 564.9 237.389 569.2C237.389 594.1 243.889 615 256.789 632.3C269.689 649.6 288.489 665.8 313.389 680.9C336.989 694.9 363.689 707.6 393.389 718.9C422.989 730.2 452.889 741.8 483.089 753.7C524.389 769.4 564.389 788.3 602.789 810.2C640.489 831.7 673.889 856.5 703.089 884.6C730.689 912.1 753.389 944.1 770.189 979.2C786.889 1014.2 794.189 1053.8 791.989 1098V1110.2C791.889 1114.8 791.389 1119.4 790.389 1123.9C783.889 1178.9 767.989 1226.6 742.589 1267C717.189 1307.4 686.189 1340.6 649.589 1366.4C613.489 1393.2 572.589 1412.9 529.189 1424.6C485.589 1436.4 442.689 1441.8 400.689 1440.8C396.489 1439.7 392.189 1439.1 387.789 1439.1H374.789C303.689 1431.6 244.389 1418.6 196.989 1400.3C179.589 1393.7 163.889 1386.8 148.889 1379.9C308.089 1618.5 579.589 1775.6 887.889 1775.6C1378.29 1775.6 1775.69 1378.1 1775.69 887.8C1775.59 849 1773.09 810.3 1767.99 771.8C1758.19 779.5 1747.49 785.9 1736.19 790.8ZM1098.39 1286.4C1098.89 1309.6 1099.69 1332.7 1100.79 1355.8C1101.79 1379.1 1103.49 1400.3 1105.59 1419.7H1095.89C1059.29 1419.7 1028.79 1413.5 1004.49 1401.1C980.189 1388.7 960.489 1372.3 945.489 1351.7C930.689 1330.8 919.989 1307.2 913.989 1282.2C908.089 1257.8 905.089 1232.8 905.089 1207.8V876.5C905.189 851.2 908.189 825.9 913.989 801.3C919.689 776.5 930.389 753.1 945.489 732.6C960.589 712.1 980.189 695.7 1004.49 683.3C1028.79 670.9 1059.19 664.7 1095.89 664.6H1105.59C1103.39 684 1101.79 705.3 1100.79 728.4C1099.79 751.5 1098.89 774.6 1098.39 797.2C1097.89 819.8 1097.59 841 1097.59 861V1221.5C1097.49 1241.6 1097.79 1263.2 1098.39 1286.4ZM1092.69 490.1C1082.29 508 1067.59 523 1049.89 533.7C1032.09 544.5 1013.49 549.9 994.089 549.9C977.889 549.9 961.189 545.6 943.889 536.9C926.589 527.2 913.389 514 904.289 497.3C895.089 480.7 890.389 462.1 890.489 443.1C890.489 423.7 895.389 404.3 905.089 384.9C915.489 367 930.189 351.9 947.989 341.2C965.289 330.6 985.189 325 1005.39 325C1022.39 325 1039.09 329.5 1053.79 338C1072.09 347.6 1085.59 361.2 1094.19 378.4C1102.69 394.9 1107.09 413.2 1107.19 431.7C1107.29 451.3 1102.39 470.7 1092.69 490.1Z" fill="white"/>
<path d="M69.1888 1217.6C82.0888 1217.6 97.1888 1222 114.389 1230.6C122.989 1233.8 131.389 1237.4 139.489 1241.1C147.589 1244.8 156.989 1249.5 167.789 1254.9C192.389 1264.6 217.489 1272.9 242.989 1280C271.489 1288 306.289 1293.6 347.289 1296.9C351.589 1298.1 357.489 1298.5 365.089 1298.5C401.689 1300.7 433.489 1297.5 460.489 1288.8C487.489 1280.1 510.089 1269.4 528.489 1256.4C546.789 1242.4 561.089 1226.8 571.289 1209.5C581.189 1193.2 587.589 1175.1 589.889 1156.2C589.889 1153.5 590.189 1150.7 590.689 1148.1C591.189 1145.4 591.489 1142.7 591.489 1140C591.489 1111 583.389 1084 567.189 1059.2C551.089 1035.5 527.889 1014 497.689 994.6C467.589 974.1 432.789 955.5 393.489 938.8C354.189 922.1 313.489 905.6 271.389 889.4C231.489 874.3 196.989 856.3 167.889 835.3C138.789 814.3 114.589 790.9 95.0888 765C61.8888 721 43.8888 673.3 40.5888 621.8C-20.6112 817.4 -12.4112 1028.2 63.8888 1218.5C65.5888 1218.1 67.3888 1217.8 69.1888 1217.6Z" fill="white"/>
</g>
<defs>
<clipPath id="clip0_71_86">
<rect width="1775.69" height="1775.6" fill="white"/>
</clipPath>
</defs>
</svg>
